<?xml version="1.0" encoding="UTF-8" standalone="no"?>
<!DOCTYPE svg PUBLIC "-//W3C//DTD SVG 1.1//EN"
 "http://www.w3.org/Graphics/SVG/1.1/DTD/svg11.dtd">
<!-- Generated by graphviz version 2.36.0 (20140111.2315)
 -->
<!-- Title: %3 Pages: 1 -->
<svg width="560pt" height="692pt"
 viewBox="0.00 0.00 559.80 692.00" xmlns="http://www.w3.org/2000/svg" xmlns:xlink="http://www.w3.org/1999/xlink">
<g id="graph0" class="graph" transform="scale(1 1) rotate(0) translate(4 688)">
<title>%3</title>
<polygon fill="white" stroke="none" points="-4,4 -4,-688 555.796,-688 555.796,4 -4,4"/>
<!-- A -->
<g id="node1" class="node"><title>A</title>
<ellipse fill="none" stroke="black" cx="124" cy="-666" rx="27" ry="18"/>
<text text-anchor="middle" x="124" y="-662.3" font-family="Times,serif" font-size="14.00">A</text>
</g>
<!-- B -->
<g id="node2" class="node"><title>B</title>
<ellipse fill="none" stroke="black" cx="124" cy="-594" rx="27" ry="18"/>
<text text-anchor="middle" x="124" y="-590.3" font-family="Times,serif" font-size="14.00">B</text>
</g>
<!-- A&#45;&gt;B -->
<g id="edge1" class="edge"><title>A&#45;&gt;B</title>
<path fill="none" stroke="black" d="M124,-647.697C124,-639.983 124,-630.712 124,-622.112"/>
<polygon fill="black" stroke="black" points="127.5,-622.104 124,-612.104 120.5,-622.104 127.5,-622.104"/>
</g>
<!-- 1 -->
<g id="node3" class="node"><title>1</title>
<ellipse fill="none" stroke="black" cx="28" cy="-378" rx="27" ry="18"/>
<text text-anchor="middle" x="28" y="-374.3" font-family="Times,serif" font-size="14.00">1</text>
</g>
<!-- 1&#45;&gt;1 -->
<g id="edge3" class="edge"><title>1&#45;&gt;1</title>
<path fill="none" stroke="black" d="M47.895,-390.432C60.688,-393.675 73,-389.531 73,-378 73,-369.622 66.5006,-365.143 58.0395,-364.564"/>
<polygon fill="black" stroke="black" points="57.5019,-361.1 47.895,-365.568 58.191,-368.066 57.5019,-361.1"/>
</g>
<!-- 14 -->
<g id="node4" class="node"><title>14</title>
<ellipse fill="none" stroke="black" cx="120" cy="-306" rx="27" ry="18"/>
<text text-anchor="middle" x="120" y="-302.3" font-family="Times,serif" font-size="14.00">14</text>
</g>
<!-- 1&#45;&gt;14 -->
<g id="edge2" class="edge"><title>1&#45;&gt;14</title>
<path fill="none" stroke="black" d="M45.3045,-363.834C59.1826,-353.274 78.8627,-338.3 94.5386,-326.373"/>
<polygon fill="black" stroke="black" points="96.9341,-328.948 102.773,-320.107 92.6955,-323.377 96.9341,-328.948"/>
</g>
<!-- 9 -->
<g id="node13" class="node"><title>9</title>
<ellipse fill="none" stroke="black" cx="120" cy="-234" rx="27" ry="18"/>
<text text-anchor="middle" x="120" y="-230.3" font-family="Times,serif" font-size="14.00">9</text>
</g>
<!-- 14&#45;&gt;9 -->
<g id="edge18" class="edge"><title>14&#45;&gt;9</title>
<path fill="none" stroke="black" d="M120,-287.697C120,-279.983 120,-270.712 120,-262.112"/>
<polygon fill="black" stroke="black" points="123.5,-262.104 120,-252.104 116.5,-262.104 123.5,-262.104"/>
</g>
<!-- 5 -->
<g id="node5" class="node"><title>5</title>
<ellipse fill="none" stroke="black" cx="27" cy="-162" rx="27" ry="18"/>
<text text-anchor="middle" x="27" y="-158.3" font-family="Times,serif" font-size="14.00">5</text>
</g>
<!-- 5&#45;&gt;1 -->
<g id="edge4" class="edge"><title>5&#45;&gt;1</title>
<path fill="none" stroke="black" d="M27.0805,-180.232C27.2539,-217.324 27.6635,-304.981 27.8725,-349.712"/>
<polygon fill="black" stroke="black" points="24.3731,-349.866 27.9199,-359.849 31.373,-349.833 24.3731,-349.866"/>
</g>
<!-- 6 -->
<g id="node6" class="node"><title>6</title>
<ellipse fill="none" stroke="black" cx="99" cy="-162" rx="27" ry="18"/>
<text text-anchor="middle" x="99" y="-158.3" font-family="Times,serif" font-size="14.00">6</text>
</g>
<!-- 6&#45;&gt;1 -->
<g id="edge5" class="edge"><title>6&#45;&gt;1</title>
<path fill="none" stroke="black" d="M93.4546,-179.714C81.1657,-216.754 51.5608,-305.986 36.7483,-350.632"/>
<polygon fill="black" stroke="black" points="33.3983,-349.614 33.5713,-360.208 40.0422,-351.819 33.3983,-349.614"/>
</g>
<!-- 7 -->
<g id="node7" class="node"><title>7</title>
<ellipse fill="none" stroke="black" cx="209" cy="-162" rx="27" ry="18"/>
<text text-anchor="middle" x="209" y="-158.3" font-family="Times,serif" font-size="14.00">7</text>
</g>
<!-- 2 -->
<g id="node8" class="node"><title>2</title>
<ellipse fill="none" stroke="black" cx="208" cy="-18" rx="27" ry="18"/>
<text text-anchor="middle" x="208" y="-14.3" font-family="Times,serif" font-size="14.00">2</text>
</g>
<!-- 7&#45;&gt;2 -->
<g id="edge6" class="edge"><title>7&#45;&gt;2</title>
<path fill="none" stroke="black" d="M208.879,-143.871C208.709,-119.67 208.396,-75.2108 208.193,-46.3932"/>
<polygon fill="black" stroke="black" points="211.691,-46.1643 208.121,-36.1893 204.692,-46.2137 211.691,-46.1643"/>
</g>
<!-- 3 -->
<g id="node9" class="node"><title>3</title>
<ellipse fill="none" stroke="black" cx="158" cy="-90" rx="27" ry="18"/>
<text text-anchor="middle" x="158" y="-86.3" font-family="Times,serif" font-size="14.00">3</text>
</g>
<!-- 7&#45;&gt;3 -->
<g id="edge7" class="edge"><title>7&#45;&gt;3</title>
<path fill="none" stroke="black" d="M197.681,-145.465C191.079,-136.402 182.616,-124.786 175.203,-114.612"/>
<polygon fill="black" stroke="black" points="178.004,-112.513 169.287,-106.492 172.347,-116.635 178.004,-112.513"/>
</g>
<!-- 8 -->
<g id="node10" class="node"><title>8</title>
<ellipse fill="none" stroke="black" cx="276" cy="-90" rx="27" ry="18"/>
<text text-anchor="middle" x="276" y="-86.3" font-family="Times,serif" font-size="14.00">8</text>
</g>
<!-- 4 -->
<g id="node11" class="node"><title>4</title>
<ellipse fill="none" stroke="black" cx="280" cy="-18" rx="27" ry="18"/>
<text text-anchor="middle" x="280" y="-14.3" font-family="Times,serif" font-size="14.00">4</text>
</g>
<!-- 8&#45;&gt;4 -->
<g id="edge8" class="edge"><title>8&#45;&gt;4</title>
<path fill="none" stroke="black" d="M276.989,-71.6966C277.43,-63.9827 277.959,-54.7125 278.451,-46.1124"/>
<polygon fill="black" stroke="black" points="281.946,-46.2878 279.023,-36.1043 274.958,-45.8883 281.946,-46.2878"/>
</g>
<!-- 17 -->
<g id="node12" class="node"><title>17</title>
<ellipse fill="none" stroke="black" cx="373" cy="-234" rx="27" ry="18"/>
<text text-anchor="middle" x="373" y="-230.3" font-family="Times,serif" font-size="14.00">17</text>
</g>
<!-- 8&#45;&gt;17 -->
<g id="edge9" class="edge"><title>8&#45;&gt;17</title>
<path fill="none" stroke="black" d="M288.985,-105.879C297.826,-116.274 309.586,-130.63 319,-144 333.708,-164.889 348.638,-189.846 359.06,-208.009"/>
<polygon fill="black" stroke="black" points="356.09,-209.866 364.075,-216.83 362.176,-206.407 356.09,-209.866"/>
</g>
<!-- 13 -->
<g id="node19" class="node"><title>13</title>
<ellipse fill="none" stroke="black" cx="283" cy="-162" rx="27" ry="18"/>
<text text-anchor="middle" x="283" y="-158.3" font-family="Times,serif" font-size="14.00">13</text>
</g>
<!-- 17&#45;&gt;13 -->
<g id="edge22" class="edge"><title>17&#45;&gt;13</title>
<path fill="none" stroke="black" d="M356.072,-219.834C342.495,-209.274 323.243,-194.3 307.908,-182.373"/>
<polygon fill="black" stroke="black" points="309.895,-179.484 299.852,-176.107 305.597,-185.01 309.895,-179.484"/>
</g>
<!-- 9&#45;&gt;5 -->
<g id="edge10" class="edge"><title>9&#45;&gt;5</title>
<path fill="none" stroke="black" d="M102.507,-219.834C88.4784,-209.274 68.5844,-194.3 52.7382,-182.373"/>
<polygon fill="black" stroke="black" points="54.5087,-179.325 44.4142,-176.107 50.299,-184.918 54.5087,-179.325"/>
</g>
<!-- 9&#45;&gt;6 -->
<g id="edge11" class="edge"><title>9&#45;&gt;6</title>
<path fill="none" stroke="black" d="M114.916,-216.055C112.518,-208.059 109.599,-198.331 106.92,-189.4"/>
<polygon fill="black" stroke="black" points="110.263,-188.362 104.037,-179.789 103.558,-190.373 110.263,-188.362"/>
</g>
<!-- 10 -->
<g id="node14" class="node"><title>10</title>
<ellipse fill="none" stroke="black" cx="263" cy="-234" rx="27" ry="18"/>
<text text-anchor="middle" x="263" y="-230.3" font-family="Times,serif" font-size="14.00">10</text>
</g>
<!-- 10&#45;&gt;7 -->
<g id="edge12" class="edge"><title>10&#45;&gt;7</title>
<path fill="none" stroke="black" d="M251.016,-217.465C244.024,-208.402 235.064,-196.786 227.215,-186.612"/>
<polygon fill="black" stroke="black" points="229.83,-184.272 220.951,-178.492 224.288,-188.548 229.83,-184.272"/>
</g>
<!-- 11 -->
<g id="node15" class="node"><title>11</title>
<ellipse fill="none" stroke="black" cx="420" cy="-666" rx="27" ry="18"/>
<text text-anchor="middle" x="420" y="-662.3" font-family="Times,serif" font-size="14.00">11</text>
</g>
<!-- 11&#45;&gt;7 -->
<g id="edge14" class="edge"><title>11&#45;&gt;7</title>
<path fill="none" stroke="black" d="M425.872,-648.335C435.721,-617.205 451.817,-549.284 423,-504 402.718,-472.128 369.13,-497.869 346,-468 328.561,-445.48 315.352,-239.322 299,-216 291.315,-205.039 262.554,-189.09 239.586,-177.554"/>
<polygon fill="black" stroke="black" points="241.009,-174.353 230.493,-173.061 237.908,-180.629 241.009,-174.353"/>
</g>
<!-- 11&#45;&gt;4 -->
<g id="edge13" class="edge"><title>11&#45;&gt;4</title>
<path fill="none" stroke="black" d="M446.545,-662.399C476.721,-657.863 524.679,-645.502 547,-612 555.871,-598.685 549.912,-591.733 547,-576 515.812,-407.509 487.047,-368.546 409,-216 375.355,-150.239 324.94,-79.1685 298.189,-43.0435"/>
<polygon fill="black" stroke="black" points="300.705,-40.5624 291.922,-34.6366 295.093,-44.746 300.705,-40.5624"/>
</g>
<!-- 22 -->
<g id="node16" class="node"><title>22</title>
<ellipse fill="none" stroke="black" cx="495" cy="-594" rx="27" ry="18"/>
<text text-anchor="middle" x="495" y="-590.3" font-family="Times,serif" font-size="14.00">22</text>
</g>
<!-- 11&#45;&gt;22 -->
<g id="edge15" class="edge"><title>11&#45;&gt;22</title>
<path fill="none" stroke="black" d="M435.177,-650.834C445.851,-640.872 460.319,-627.369 472.353,-616.137"/>
<polygon fill="black" stroke="black" points="474.923,-618.526 479.845,-609.144 470.146,-613.409 474.923,-618.526"/>
</g>
<!-- 16 -->
<g id="node21" class="node"><title>16</title>
<ellipse fill="none" stroke="black" cx="382" cy="-450" rx="27" ry="18"/>
<text text-anchor="middle" x="382" y="-446.3" font-family="Times,serif" font-size="14.00">16</text>
</g>
<!-- 22&#45;&gt;16 -->
<g id="edge27" class="edge"><title>22&#45;&gt;16</title>
<path fill="none" stroke="black" d="M490.569,-576.144C484.931,-557.092 473.74,-525.886 456,-504 443.887,-489.056 426.561,-476.339 411.719,-467.112"/>
<polygon fill="black" stroke="black" points="413.248,-463.948 402.867,-461.828 409.66,-469.959 413.248,-463.948"/>
</g>
<!-- 12 -->
<g id="node17" class="node"><title>12</title>
<ellipse fill="none" stroke="black" cx="388" cy="-378" rx="27" ry="18"/>
<text text-anchor="middle" x="388" y="-374.3" font-family="Times,serif" font-size="14.00">12</text>
</g>
<!-- 23 -->
<g id="node18" class="node"><title>23</title>
<ellipse fill="none" stroke="black" cx="356" cy="-306" rx="27" ry="18"/>
<text text-anchor="middle" x="356" y="-302.3" font-family="Times,serif" font-size="14.00">23</text>
</g>
<!-- 12&#45;&gt;23 -->
<g id="edge16" class="edge"><title>12&#45;&gt;23</title>
<path fill="none" stroke="black" d="M380.416,-360.411C376.631,-352.129 371.966,-341.925 367.731,-332.662"/>
<polygon fill="black" stroke="black" points="370.87,-331.11 363.529,-323.47 364.504,-334.02 370.87,-331.11"/>
</g>
<!-- 23&#45;&gt;17 -->
<g id="edge28" class="edge"><title>23&#45;&gt;17</title>
<path fill="none" stroke="black" d="M360.115,-288.055C362.008,-280.261 364.3,-270.822 366.424,-262.079"/>
<polygon fill="black" stroke="black" points="369.846,-262.819 368.805,-252.275 363.043,-261.167 369.846,-262.819"/>
</g>
<!-- 13&#45;&gt;8 -->
<g id="edge17" class="edge"><title>13&#45;&gt;8</title>
<path fill="none" stroke="black" d="M281.27,-143.697C280.498,-135.983 279.571,-126.712 278.711,-118.112"/>
<polygon fill="black" stroke="black" points="282.188,-117.706 277.71,-108.104 275.223,-118.403 282.188,-117.706"/>
</g>
<!-- 15 -->
<g id="node20" class="node"><title>15</title>
<ellipse fill="none" stroke="black" cx="233" cy="-306" rx="27" ry="18"/>
<text text-anchor="middle" x="233" y="-302.3" font-family="Times,serif" font-size="14.00">15</text>
</g>
<!-- 15&#45;&gt;10 -->
<g id="edge19" class="edge"><title>15&#45;&gt;10</title>
<path fill="none" stroke="black" d="M240.11,-288.411C243.659,-280.129 248.032,-269.925 252.002,-260.662"/>
<polygon fill="black" stroke="black" points="255.219,-262.04 255.941,-251.47 248.785,-259.283 255.219,-262.04"/>
</g>
<!-- 16&#45;&gt;11 -->
<g id="edge20" class="edge"><title>16&#45;&gt;11</title>
<path fill="none" stroke="black" d="M404.841,-459.782C425.966,-468.684 457.417,-483.987 480,-504 509.349,-530.008 519.106,-538.633 531,-576 535.853,-591.246 539.535,-598.467 531,-612 514.608,-637.992 481.572,-651.51 455.783,-658.364"/>
<polygon fill="black" stroke="black" points="454.842,-654.991 445.952,-660.755 456.496,-661.793 454.842,-654.991"/>
</g>
<!-- 16&#45;&gt;12 -->
<g id="edge21" class="edge"><title>16&#45;&gt;12</title>
<path fill="none" stroke="black" d="M383.483,-431.697C384.144,-423.983 384.939,-414.712 385.676,-406.112"/>
<polygon fill="black" stroke="black" points="389.167,-406.367 386.534,-396.104 382.193,-405.769 389.167,-406.367"/>
</g>
<!-- 19 -->
<g id="node22" class="node"><title>19</title>
<ellipse fill="none" stroke="black" cx="119" cy="-378" rx="27" ry="18"/>
<text text-anchor="middle" x="119" y="-374.3" font-family="Times,serif" font-size="14.00">19</text>
</g>
<!-- 19&#45;&gt;14 -->
<g id="edge23" class="edge"><title>19&#45;&gt;14</title>
<path fill="none" stroke="black" d="M119.247,-359.697C119.357,-351.983 119.49,-342.712 119.613,-334.112"/>
<polygon fill="black" stroke="black" points="123.112,-334.153 119.756,-324.104 116.113,-334.053 123.112,-334.153"/>
</g>
<!-- 20 -->
<g id="node23" class="node"><title>20</title>
<ellipse fill="none" stroke="black" cx="278" cy="-378" rx="27" ry="18"/>
<text text-anchor="middle" x="278" y="-374.3" font-family="Times,serif" font-size="14.00">20</text>
</g>
<!-- 20&#45;&gt;15 -->
<g id="edge24" class="edge"><title>20&#45;&gt;15</title>
<path fill="none" stroke="black" d="M267.789,-361.116C262.15,-352.345 255.027,-341.264 248.696,-331.416"/>
<polygon fill="black" stroke="black" points="251.523,-329.34 243.171,-322.821 245.634,-333.126 251.523,-329.34"/>
</g>
<!-- 26 -->
<g id="node24" class="node"><title>26</title>
<ellipse fill="none" stroke="black" cx="367" cy="-594" rx="27" ry="18"/>
<text text-anchor="middle" x="367" y="-590.3" font-family="Times,serif" font-size="14.00">26</text>
</g>
<!-- 20&#45;&gt;26 -->
<g id="edge25" class="edge"><title>20&#45;&gt;26</title>
<path fill="none" stroke="black" d="M283.068,-395.943C288.62,-414.007 298.066,-443.348 308,-468 322.173,-503.173 341.33,-542.552 353.917,-567.543"/>
<polygon fill="black" stroke="black" points="350.911,-569.354 358.555,-576.69 357.155,-566.188 350.911,-569.354"/>
</g>
<!-- 21 -->
<g id="node25" class="node"><title>21</title>
<ellipse fill="none" stroke="black" cx="387" cy="-522" rx="27" ry="18"/>
<text text-anchor="middle" x="387" y="-518.3" font-family="Times,serif" font-size="14.00">21</text>
</g>
<!-- 26&#45;&gt;21 -->
<g id="edge33" class="edge"><title>26&#45;&gt;21</title>
<path fill="none" stroke="black" d="M371.841,-576.055C374.102,-568.145 376.846,-558.54 379.375,-549.688"/>
<polygon fill="black" stroke="black" points="382.821,-550.366 382.203,-539.789 376.091,-548.443 382.821,-550.366"/>
</g>
<!-- 28 -->
<g id="node29" class="node"><title>28</title>
<ellipse fill="none" stroke="black" cx="232" cy="-522" rx="27" ry="18"/>
<text text-anchor="middle" x="232" y="-518.3" font-family="Times,serif" font-size="14.00">28</text>
</g>
<!-- 26&#45;&gt;28 -->
<g id="edge34" class="edge"><title>26&#45;&gt;28</title>
<path fill="none" stroke="black" d="M346.202,-582.216C323.542,-570.466 287.109,-551.575 261.5,-538.296"/>
<polygon fill="black" stroke="black" points="263.089,-535.178 252.6,-533.681 259.866,-541.392 263.089,-535.178"/>
</g>
<!-- 21&#45;&gt;16 -->
<g id="edge26" class="edge"><title>21&#45;&gt;16</title>
<path fill="none" stroke="black" d="M385.764,-503.697C385.213,-495.983 384.551,-486.712 383.937,-478.112"/>
<polygon fill="black" stroke="black" points="387.425,-477.83 383.222,-468.104 380.443,-478.328 387.425,-477.83"/>
</g>
<!-- 24 -->
<g id="node26" class="node"><title>24</title>
<ellipse fill="none" stroke="black" cx="135" cy="-450" rx="27" ry="18"/>
<text text-anchor="middle" x="135" y="-446.3" font-family="Times,serif" font-size="14.00">24</text>
</g>
<!-- 24&#45;&gt;15 -->
<g id="edge29" class="edge"><title>24&#45;&gt;15</title>
<path fill="none" stroke="black" d="M151.568,-435.389C163.072,-425.348 178.211,-410.893 189,-396 203.229,-376.359 215.109,-351.421 222.924,-332.943"/>
<polygon fill="black" stroke="black" points="226.169,-334.254 226.733,-323.674 219.694,-331.593 226.169,-334.254"/>
</g>
<!-- 24&#45;&gt;19 -->
<g id="edge31" class="edge"><title>24&#45;&gt;19</title>
<path fill="none" stroke="black" d="M131.127,-432.055C129.345,-424.261 127.188,-414.822 125.189,-406.079"/>
<polygon fill="black" stroke="black" points="128.589,-405.244 122.949,-396.275 121.765,-406.804 128.589,-405.244"/>
</g>
<!-- 18 -->
<g id="node27" class="node"><title>18</title>
<ellipse fill="none" stroke="black" cx="86" cy="-90" rx="27" ry="18"/>
<text text-anchor="middle" x="86" y="-86.3" font-family="Times,serif" font-size="14.00">18</text>
</g>
<!-- 24&#45;&gt;18 -->
<g id="edge30" class="edge"><title>24&#45;&gt;18</title>
<path fill="none" stroke="black" d="M142.829,-432.719C147.34,-422.447 152.582,-408.755 155,-396 158.312,-378.533 157.967,-229.771 156,-216 151.286,-183.002 151.418,-173.01 135,-144 128.346,-132.242 118.606,-120.988 109.559,-111.898"/>
<polygon fill="black" stroke="black" points="111.834,-109.229 102.206,-104.808 106.975,-114.269 111.834,-109.229"/>
</g>
<!-- 25 -->
<g id="node28" class="node"><title>25</title>
<ellipse fill="none" stroke="black" cx="215" cy="-450" rx="27" ry="18"/>
<text text-anchor="middle" x="215" y="-446.3" font-family="Times,serif" font-size="14.00">25</text>
</g>
<!-- 25&#45;&gt;20 -->
<g id="edge32" class="edge"><title>25&#45;&gt;20</title>
<path fill="none" stroke="black" d="M228.361,-434.155C236.88,-424.689 248.085,-412.238 257.693,-401.563"/>
<polygon fill="black" stroke="black" points="260.57,-403.598 264.659,-393.824 255.367,-398.915 260.57,-403.598"/>
</g>
<!-- 28&#45;&gt;25 -->
<g id="edge38" class="edge"><title>28&#45;&gt;25</title>
<path fill="none" stroke="black" d="M227.885,-504.055C225.992,-496.261 223.7,-486.822 221.576,-478.079"/>
<polygon fill="black" stroke="black" points="224.957,-477.167 219.195,-468.275 218.154,-478.819 224.957,-477.167"/>
</g>
<!-- 27 -->
<g id="node30" class="node"><title>27</title>
<ellipse fill="none" stroke="black" cx="220" cy="-666" rx="27" ry="18"/>
<text text-anchor="middle" x="220" y="-662.3" font-family="Times,serif" font-size="14.00">27</text>
</g>
<!-- 27&#45;&gt;24 -->
<g id="edge35" class="edge"><title>27&#45;&gt;24</title>
<path fill="none" stroke="black" d="M239.975,-653.727C254.066,-644.532 271.83,-630.118 280,-612 286.577,-597.414 288.808,-589.357 280,-576 257.64,-542.091 227.393,-565.774 196,-540 174.849,-522.635 157.972,-496.104 147.38,-476.525"/>
<polygon fill="black" stroke="black" points="150.423,-474.79 142.694,-467.542 144.216,-478.027 150.423,-474.79"/>
</g>
<!-- 27&#45;&gt;25 -->
<g id="edge36" class="edge"><title>27&#45;&gt;25</title>
<path fill="none" stroke="black" d="M213.894,-648.036C204.11,-618.636 186.901,-556.344 196,-504 197.588,-494.863 200.609,-485.219 203.782,-476.699"/>
<polygon fill="black" stroke="black" points="207.072,-477.897 207.501,-467.311 200.564,-475.319 207.072,-477.897"/>
</g>
<!-- 30 -->
<g id="node31" class="node"><title>30</title>
<ellipse fill="none" stroke="black" cx="244" cy="-594" rx="27" ry="18"/>
<text text-anchor="middle" x="244" y="-590.3" font-family="Times,serif" font-size="14.00">30</text>
</g>
<!-- 27&#45;&gt;30 -->
<g id="edge37" class="edge"><title>27&#45;&gt;30</title>
<path fill="none" stroke="black" d="M220.017,-647.697C222.012,-639.372 225.292,-629.234 228.897,-620.082"/>
<polygon fill="black" stroke="black" points="232.206,-621.244 232.891,-610.671 225.763,-618.509 232.206,-621.244"/>
</g>
<!-- 30&#45;&gt;27 -->
<g id="edge40" class="edge"><title>30&#45;&gt;27</title>
<path fill="none" stroke="black" d="M243.945,-612.461C241.935,-620.804 238.647,-630.941 235.04,-640.077"/>
<polygon fill="black" stroke="black" points="231.74,-638.893 231.046,-649.465 238.182,-641.633 231.74,-638.893"/>
</g>
<!-- 29 -->
<g id="node32" class="node"><title>29</title>
<ellipse fill="none" stroke="black" cx="329" cy="-666" rx="27" ry="18"/>
<text text-anchor="middle" x="329" y="-662.3" font-family="Times,serif" font-size="14.00">29</text>
</g>
<!-- 29&#45;&gt;26 -->
<g id="edge39" class="edge"><title>29&#45;&gt;26</title>
<path fill="none" stroke="black" d="M337.813,-648.765C342.418,-640.283 348.155,-629.714 353.321,-620.197"/>
<polygon fill="black" stroke="black" points="356.539,-621.606 358.234,-611.147 350.387,-618.266 356.539,-621.606"/>
</g>
</g>
</svg>
